<?xml version="1.0" encoding="UTF-8"?>
<svg width="180px" height="180px" viewBox="0 0 180 180" version="1.1" xmlns="http://www.w3.org/2000/svg" xmlns:xlink="http://www.w3.org/1999/xlink">
    <!-- Generator: Sketch 54.1 (76490) - https://sketchapp.com -->
    <title>手续费</title>
    <desc>Created with Sketch.</desc>
    <defs>
        <filter x="-29.5%" y="-29.2%" width="159.0%" height="158.5%" filterUnits="objectBoundingBox" id="filter-1">
            <feOffset dx="0" dy="6" in="SourceAlpha" result="shadowOffsetOuter1"></feOffset>
            <feGaussianBlur stdDeviation="5" in="shadowOffsetOuter1" result="shadowBlurOuter1"></feGaussianBlur>
            <feColorMatrix values="0 0 0 0 0.321568627   0 0 0 0 0.796078431   0 0 0 0 0.792156863  0 0 0 0.0991313374 0" type="matrix" in="shadowBlurOuter1" result="shadowMatrixOuter1"></feColorMatrix>
            <feMerge>
                <feMergeNode in="shadowMatrixOuter1"></feMergeNode>
                <feMergeNode in="SourceGraphic"></feMergeNode>
            </feMerge>
        </filter>
        <linearGradient x1="50%" y1="0%" x2="50%" y2="100%" id="linearGradient-2">
            <stop stop-color="#A3EFEF" offset="0%"></stop>
            <stop stop-color="#6ADBDA" offset="100%"></stop>
        </linearGradient>
        <linearGradient x1="41.7273064%" y1="100%" x2="41.7273064%" y2="0%" id="linearGradient-3">
            <stop stop-color="#8AE7E7" offset="0%"></stop>
            <stop stop-color="#52CBCA" offset="100%"></stop>
        </linearGradient>
        <circle id="path-4" cx="15" cy="15" r="15"></circle>
        <filter x="-53.3%" y="-26.7%" width="206.7%" height="206.7%" filterUnits="objectBoundingBox" id="filter-5">
            <feOffset dx="0" dy="8" in="SourceAlpha" result="shadowOffsetOuter1"></feOffset>
            <feGaussianBlur stdDeviation="4" in="shadowOffsetOuter1" result="shadowBlurOuter1"></feGaussianBlur>
            <feColorMatrix values="0 0 0 0 0.321568627   0 0 0 0 0.796078431   0 0 0 0 0.792156863  0 0 0 0.0962631119 0" type="matrix" in="shadowBlurOuter1"></feColorMatrix>
        </filter>
        <linearGradient x1="50%" y1="0%" x2="50%" y2="100%" id="linearGradient-6">
            <stop stop-color="#FFDD00" offset="0%"></stop>
            <stop stop-color="#FFB900" offset="100%"></stop>
        </linearGradient>
    </defs>
    <g id="Page-1" stroke="none" stroke-width="1" fill="none" fill-rule="evenodd">
        <g id="首页" transform="translate(-1257.000000, -2361.000000)">
            <g id="简介" transform="translate(0.000000, 2052.000000)">
                <g id="手续费" transform="translate(1257.000000, 309.000000)">
                    <circle id="椭圆形" fill="#52CBCA" fill-rule="nonzero" opacity="0.100000001" cx="90" cy="90" r="90"></circle>
                    <g id="编组-4" filter="url(#filter-1)" transform="translate(34.000000, 37.000000)">
                        <rect id="矩形" fill="url(#linearGradient-2)" fill-rule="nonzero" x="15" y="0" width="90" height="106" rx="8"></rect>
                        <rect id="矩形" fill="#FFFFFF" opacity="0.699999988" x="39" y="28" width="25" height="5" rx="2.5"></rect>
                        <rect id="矩形复制-4" fill="#FFFFFF" opacity="0.5" x="39" y="50" width="31" height="5" rx="2.5"></rect>
                        <rect id="矩形复制-5" fill="#FFFFFF" opacity="0.5" x="39" y="61" width="16" height="5" rx="2.5"></rect>
                        <rect id="矩形复制-2" fill="#FFFFFF" opacity="0.5" x="39" y="39" width="38" height="5" rx="2.5"></rect>
                        <path d="M8,78.9999893 L82.0000625,79.000002 C86.4183384,79.0000026 90.0000584,82.5817231 90.0000584,86.999999 C90.0000584,91.5564112 90.0000584,95.3441372 90.0000584,98.3631771 C90.0000584,103.002436 92.3193886,105.548043 96.9580491,106 L12,106 C5.372583,106 8.11624501e-16,100.627417 0,94 L-1.043129e-06,86.9999883 C-1.043129e-06,82.5817103 3.58172096,78.9999883 7.99999896,78.9999883 C7.9999993,78.9999883 7.99999965,78.9999883 8,78.9999883 Z" id="矩形" fill="url(#linearGradient-3)" fill-rule="nonzero"></path>
                    </g>
                    <g id="眼" transform="translate(124.000000, 90.000000)" fill-rule="nonzero">
                        <g id="椭圆形" opacity="0.800000012">
                            <use fill="black" fill-opacity="1" filter="url(#filter-5)" xlink:href="#path-4"></use>
                            <use fill="#FFFFFF" xlink:href="#path-4"></use>
                        </g>
                        <path d="M23.9843578,8.48949135 L24,11.2256465 L24,11.6060881 L24,14.1395245 L24,14.4713065 L24,17.1044493 L24,17.3850251 L24,20.3499309 C24,20.4007273 23.9910741,20.451019 23.9764684,20.5006692 C23.7417822,21.2898921 21.6856112,21.9072862 19.1824719,21.9072862 C18.2469241,21.9072862 17.3738767,21.8210113 16.6350333,21.6717722 L16.6350333,22.442584 C16.6350333,22.4934411 16.6261074,22.5436721 16.6114448,22.5933223 C16.3767814,23.3826818 14.3207471,24 11.8175281,24 C9.31430907,24 7.2582178,23.3826818 7.02353164,22.5933223 C7.00892592,22.543729 7,22.4934373 7,22.442584 L7,19.5287857 L7,19.1970796 L7,16.6635864 L7,16.2832054 L7.01565358,13.5470503 C7.21334897,12.7132667 9.28753128,12.0574223 11.8175243,12.0574223 C12.7528557,12.0574223 13.6258271,12.1473142 14.3648831,12.3024436 L14.3648831,11.6060843 L14.3648831,11.2256427 L14.3648831,8.66439052 C14.3648831,8.57654053 14.3758896,8.50898785 14.3886084,8.45996005 C14.6277062,7.64035194 16.682537,7 19.1824871,7 C21.7122865,7 23.7865827,7.65578746 23.9843578,8.48949135 Z M8.18709866,13.5745494 C8.04117507,13.6807443 8.00292765,13.7558518 8.00009395,13.7716241 C8.00292401,13.7875547 8.04117506,13.8626622 8.18707696,13.9689291 C8.31748399,14.0635773 8.56605975,14.2065359 9.00937859,14.3490086 C9.80778188,14.6056991 10.8678703,14.7471027 11.994402,14.7471027 C12.8743712,14.7471027 13.7136712,14.6608589 14.4194704,14.5007027 C14.6172676,14.4559017 14.8045832,14.405313 14.9793676,14.3490265 C14.9902325,14.345618 15.0007503,14.3421158 15.0114128,14.3385561 C15.4346284,14.1996395 15.6743742,14.0613853 15.801597,13.9689471 C15.9475748,13.8626622 15.9857499,13.7875691 15.9886559,13.7716421 C15.985768,13.7558445 15.9475748,13.6807515 15.8016729,13.5745422 C15.6744501,13.4821579 15.4346465,13.3437777 15.0114164,13.2047316 C15.0009021,13.2011755 14.9902361,13.1978209 14.9794435,13.1942612 C14.8046808,13.1381043 14.6172676,13.0875155 14.4194921,13.0426426 C13.7136929,12.8825799 12.8743965,12.7963182 11.9944237,12.7963182 C10.8679101,12.7963182 9.80782167,12.9376498 9.00940029,13.1942648 C8.56606337,13.3370182 8.31748763,13.479768 8.18709866,13.5745494 Z M15.9886595,20.3452782 C15.8724317,20.3946539 15.7466908,20.441942 15.6117839,20.4870921 C15.3761657,20.5660329 15.1122035,20.6384516 14.8213973,20.7041395 C14.6235422,20.7489369 14.4134199,20.7904553 14.1908713,20.8287487 C13.499902,20.9475881 12.7609084,21.0078374 11.994402,21.0078374 C11.2278053,21.0078374 10.4888839,20.9475881 9.79793271,20.8287487 C9.0612342,20.7018504 8.4576282,20.5395597 8,20.3452782 L8,22.0741886 C8.00007228,22.0743182 8.00007228,22.0743722 8.00007228,22.0746494 C8.01869722,22.1328903 8.2546696,22.3971718 9.08195185,22.6399401 C9.87254084,22.8721623 10.9068045,23 11.994402,23 C13.081873,23 14.1162632,22.8721623 14.9067799,22.6399401 C15.7339357,22.3971538 15.9701069,22.1328903 15.9885836,22.0746494 C15.9886595,22.0743902 15.9886595,22.0743182 15.9886595,22.0741886 L15.9886595,20.3452782 Z M15.9886595,17.5820543 C15.891165,17.6234287 15.7868249,17.6631402 15.6761886,17.7016891 C15.3225138,17.824693 14.9021896,17.9324356 14.419474,18.0239344 C14.3446779,18.0381122 14.2686457,18.0520165 14.1908713,18.0653808 C13.499902,18.1842202 12.7609048,18.2445451 11.994402,18.2445451 C11.2278053,18.2445451 10.4888839,18.1842202 9.79793271,18.0653808 C9.0612342,17.9384861 8.4576282,17.7761919 8,17.5820543 L8,19.3108387 C8.0000759,19.3109683 8.0000759,19.3111699 8.0000759,19.3112455 C8.0183683,19.3693352 8.25431901,19.6336743 9.08195547,19.8765902 C9.87254446,20.1087404 10.9068081,20.2366501 11.9944056,20.2366501 C12.8705977,20.2366501 13.7120629,20.1535414 14.419474,19.9999863 C14.5902031,19.9629851 14.7531758,19.9218734 14.9067799,19.8765938 C14.9429925,19.8660297 14.9774628,19.8554296 15.0113983,19.8448116 C15.7537606,19.6111137 15.9708478,19.3671288 15.9885836,19.3114326 L15.9886595,19.3108244 L15.9886595,17.5820543 Z M15.9888077,15.0483207 L15.9888077,14.8647183 C15.9097538,14.8982354 15.8261676,14.9307554 15.738544,14.962318 C15.3722586,15.0945254 14.9308083,15.2096791 14.4194921,15.3066705 C14.344696,15.3208483 14.2686638,15.3347669 14.1908894,15.3480593 C13.4999165,15.4669743 12.7609229,15.5272236 11.9944201,15.5272236 C11.2278234,15.5272236 10.488902,15.4669527 9.7979508,15.3480593 C9.06125228,15.2212906 8.45764628,15.0589423 8.00001808,14.8646608 L8.00001808,16.5936972 C8.00009398,16.5936972 8.00009398,16.5938987 8.00009398,16.5938987 C8.01859242,16.6521361 8.25461541,16.9165472 9.08197355,17.159391 C9.87256254,17.3916312 10.9068262,17.5193934 11.9944237,17.5193934 C12.8706194,17.5193934 13.7120846,17.4363566 14.4194957,17.2828016 C14.5902248,17.2455988 14.7531975,17.2046131 14.9068016,17.159409 C14.9430142,17.1487153 14.9774845,17.1381729 15.01142,17.1274972 C15.7539883,16.8938569 15.9709996,16.6498145 15.9886053,16.5939167 L15.9888077,16.5937152 L15.9888077,15.0483207 Z M22.9999819,20.0896099 L22.9999603,20.0896099 L22.9999819,18.3607354 C22.5423321,18.5549414 21.9388742,18.7173652 21.2021757,18.8440584 C20.5112823,18.9629734 19.7722308,19.0232227 19.0057823,19.0232227 C18.2392,19.0232227 17.5001522,18.9629518 16.8093311,18.8440584 C16.7314266,18.8306184 16.6554667,18.8168438 16.580526,18.8027416 L16.580526,20.7787143 C17.2880094,20.9323953 18.1296046,21.0152305 19.0058004,21.0152305 C20.0932678,21.0152305 21.1276399,20.8875223 21.9181746,20.6553001 C22.7453882,20.4125894 22.9814835,20.1481963 22.999906,20.090085 C22.999906,20.0899374 22.9999819,20.0896819 22.9999819,20.0896063 Z M22.9999819,17.2778309 L22.9999603,17.2778309 L22.9999819,15.548978 C22.5423321,15.743184 21.9388742,15.9055322 21.2021757,16.032301 C20.5112823,16.151216 19.7722308,16.2113357 19.0057823,16.2113357 C18.2392,16.2113357 17.5001522,16.1510684 16.8093311,16.032301 C16.7314266,16.018933 16.6554667,16.0050324 16.580526,15.9907826 L16.580526,17.9669209 C17.2880094,18.1205479 18.1296046,18.2035847 19.0058004,18.2035847 C20.0932678,18.2035847 21.1276399,18.0757469 21.9181746,17.8437263 C22.7453882,17.6007384 22.9814835,17.3364749 22.999906,17.278234 C22.999906,17.2781044 22.9999819,17.2779029 22.9999819,17.2778273 Z M22.9999819,14.514409 L22.9999639,14.514409 L22.9999819,12.7854446 C22.5424116,12.9797981 21.9388779,13.1422219 21.2021793,13.2689151 C20.5112859,13.3878301 19.7722345,13.4480794 19.0057859,13.4480794 C18.2392037,13.4480794 17.5002317,13.3878085 16.8093347,13.2689151 C16.5884162,13.2308989 16.3795662,13.1895821 16.1828641,13.1453174 C16.3905069,13.3009564 16.523397,13.4701074 16.565754,13.6479256 L16.5806561,15.2036466 C17.2880094,15.3571476 18.1296046,15.4402384 19.0058004,15.4402384 C20.0933401,15.4402384 21.1276399,15.3123286 21.9181746,15.080236 C22.7453882,14.8372662 22.9814835,14.5731862 22.999906,14.5148157 C22.999906,14.5146106 22.9999819,14.5146106 22.9999819,14.514409 Z M22.9999819,11.7970623 L23,11.7970623 L23,10.0682274 C22.5424477,10.2625809 21.938914,10.4248752 21.2022155,10.5516979 C20.5113221,10.6704653 19.7722706,10.7307147 19.0058221,10.7307147 C18.2392398,10.7307147 17.5002678,10.6704653 16.8093708,10.5516979 C16.0726759,10.4248572 15.4690663,10.262563 15.0114381,10.0682274 L15.0114381,11.7970623 C15.0114381,11.7973394 15.0115682,11.797541 15.0115682,11.7976706 C15.0299148,11.8559079 15.266068,12.120175 16.093296,12.3630153 C16.883885,12.5951079 17.9182028,12.7229456 19.0058004,12.7229456 C20.0932678,12.7229456 21.1276399,12.5949783 21.9181746,12.3630153 C22.7455328,12.120121 22.9815594,11.8557819 22.999906,11.7976706 C22.9999819,11.7973394 22.9999819,11.7973394 22.9999819,11.7970623 Z M22.8130712,9.17250292 C22.959049,9.0663692 22.9972241,8.99112859 23,8.97540307 C22.9972241,8.95947598 22.959049,8.88431097 22.8130712,8.77817365 C22.6826642,8.68344622 22.4340884,8.54049484 21.9907696,8.39801858 C21.1924241,8.14133167 20.1323356,8 19.005804,8 C17.8791422,8 16.8191296,8.14133167 16.0207805,8.39801858 C15.5773316,8.54051284 15.3289582,8.68344982 15.1984211,8.77817365 C15.0525734,8.88431097 15.014326,8.959476 15.0115682,8.97540307 C15.014326,8.99112859 15.0525734,9.0663656 15.1984211,9.17250292 C15.3289402,9.26730233 15.5773894,9.41018173 16.0207805,9.55265799 C16.8191296,9.8093449 17.879218,9.95067657 19.005804,9.95067657 C20.1323356,9.95067657 21.1924205,9.8093449 21.9907696,9.55265799 C22.4341065,9.41016374 22.6826822,9.26728434 22.8130712,9.17250292 Z" id="形状" fill="#52CBCA"></path>
                    </g>
                    <circle id="椭圆形" fill="url(#linearGradient-6)" fill-rule="nonzero" opacity="0.800000012" cx="47.5" cy="64.5" r="22.5"></circle>
                    <path d="M54,61 L54,78 L42,78 L42,61 L38,61 L48,52 L58,61 L54,61 Z" id="形状结合" fill="#FFFFFF" opacity="0.5" transform="translate(48.000000, 65.000000) scale(1, -1) translate(-48.000000, -65.000000) "></path>
                </g>
            </g>
        </g>
    </g>
</svg>